{
    "asset" : {
        "generator" : "Khronos glTF Blender I/O v1.8.19",
        "version" : "2.0"
    },
    "scene" : 0,
    "scenes" : [
        {
            "name" : "Scene",
            "nodes" : [
                0
            ]
        }
    ],
    "nodes" : [
        {
            "mesh" : 0,
            "name" : "Tutorial Level",
            "scale" : [
                10,
                1,
                35
            ]
        }
    ],
    "materials" : [
        {
            "doubleSided" : true,
            "name" : "Snow",
            "normalTexture" : {
                "index" : 0
            },
            "pbrMetallicRoughness" : {
                "baseColorTexture" : {
                    "index" : 1
                },
                "metallicFactor" : 0,
                "metallicRoughnessTexture" : {
                    "index" : 2
                }
            }
        },
        {
            "doubleSided" : true,
            "name" : "catacombs",
            "normalTexture" : {
                "index" : 3
            },
            "pbrMetallicRoughness" : {
                "baseColorTexture" : {
                    "index" : 4
                },
                "metallicFactor" : 0,
                "metallicRoughnessTexture" : {
                    "index" : 5
                }
            }
        },
        {
            "doubleSided" : true,
            "name" : "Sand",
            "pbrMetallicRoughness" : {
                "baseColorFactor" : [
                    0.8000000715255737,
                    0.6506471633911133,
                    0.12563031911849976,
                    1
                ],
                "metallicFactor" : 0,
                "roughnessFactor" : 0.5
            }
        }
    ],
    "meshes" : [
        {
            "name" : "Cube",
            "primitives" : [
                {
                    "attributes" : {
                        "POSITION" : 0,
                        "NORMAL" : 1,
                        "TEXCOORD_0" : 2
                    },
                    "indices" : 3,
                    "material" : 0
                },
                {
                    "attributes" : {
                        "POSITION" : 4,
                        "NORMAL" : 5,
                        "TEXCOORD_0" : 6
                    },
                    "indices" : 7,
                    "material" : 1
                },
                {
                    "attributes" : {
                        "POSITION" : 8,
                        "NORMAL" : 9,
                        "TEXCOORD_0" : 10
                    },
                    "indices" : 11,
                    "material" : 2
                }
            ]
        }
    ],
    "textures" : [
        {
            "sampler" : 0,
            "source" : 0
        },
        {
            "sampler" : 0,
            "source" : 1
        },
        {
            "sampler" : 0,
            "source" : 2
        },
        {
            "sampler" : 0,
            "source" : 3
        },
        {
            "sampler" : 0,
            "source" : 4
        },
        {
            "sampler" : 0,
            "source" : 5
        }
    ],
    "images" : [
        {
            "bufferView" : 4,
            "mimeType" : "image/jpeg",
            "name" : "Stylized_Stone_Floor_005_normal"
        },
        {
            "bufferView" : 5,
            "mimeType" : "image/jpeg",
            "name" : "Stylized_Stone_Floor_005_basecolor"
        },
        {
            "bufferView" : 6,
            "mimeType" : "image/png",
            "name" : "Stylized_Stone_Floor_005_roughness"
        },
        {
            "bufferView" : 11,
            "mimeType" : "image/jpeg",
            "name" : "Catacomb_Wall_001_normal"
        },
        {
            "bufferView" : 12,
            "mimeType" : "image/jpeg",
            "name" : "Catacomb_Wall_001_basecolor"
        },
        {
            "bufferView" : 13,
            "mimeType" : "image/png",
            "name" : "Catacomb_Wall_001_roughness"
        }
    ],
    "accessors" : [
        {
            "bufferView" : 0,
            "componentType" : 5126,
            "count" : 297,
            "max" : [
                1,
                1,
                1
            ],
            "min" : [
                -1,
                -1,
                -0.3142857551574707
            ],
            "type" : "VEC3"
        },
        {
            "bufferView" : 1,
            "componentType" : 5126,
            "count" : 297,
            "type" : "VEC3"
        },
        {
            "bufferView" : 2,
            "componentType" : 5126,
            "count" : 297,
            "type" : "VEC2"
        },
        {
            "bufferView" : 3,
            "componentType" : 5123,
            "count" : 756,
            "type" : "SCALAR"
        },
        {
            "bufferView" : 7,
            "componentType" : 5126,
            "count" : 284,
            "max" : [
                1,
                7.000000953674316,
                0.6857142448425293
            ],
            "min" : [
                -1,
                1,
                -0.1857142448425293
            ],
            "type" : "VEC3"
        },
        {
            "bufferView" : 8,
            "componentType" : 5126,
            "count" : 284,
            "type" : "VEC3"
        },
        {
            "bufferView" : 9,
            "componentType" : 5126,
            "count" : 284,
            "type" : "VEC2"
        },
        {
            "bufferView" : 10,
            "componentType" : 5123,
            "count" : 540,
            "type" : "SCALAR"
        },
        {
            "bufferView" : 14,
            "componentType" : 5126,
            "count" : 84,
            "max" : [
                1,
                1,
                -0.5428572297096252
            ],
            "min" : [
                -1,
                -1,
                -1
            ],
            "type" : "VEC3"
        },
        {
            "bufferView" : 15,
            "componentType" : 5126,
            "count" : 84,
            "type" : "VEC3"
        },
        {
            "bufferView" : 16,
            "componentType" : 5126,
            "count" : 84,
            "type" : "VEC2"
        },
        {
            "bufferView" : 17,
            "componentType" : 5123,
            "count" : 204,
            "type" : "SCALAR"
        }
    ],
    "bufferViews" : [
        {
            "buffer" : 0,
            "byteLength" : 3564,
            "byteOffset" : 0
        },
        {
            "buffer" : 0,
            "byteLength" : 3564,
            "byteOffset" : 3564
        },
        {
            "buffer" : 0,
            "byteLength" : 2376,
            "byteOffset" : 7128
        },
        {
            "buffer" : 0,
            "byteLength" : 1512,
            "byteOffset" : 9504
        },
        {
            "buffer" : 0,
            "byteLength" : 252657,
            "byteOffset" : 11016
        },
        {
            "buffer" : 0,
            "byteLength" : 196003,
            "byteOffset" : 263676
        },
        {
            "buffer" : 0,
            "byteLength" : 670043,
            "byteOffset" : 459680
        },
        {
            "buffer" : 0,
            "byteLength" : 3408,
            "byteOffset" : 1129724
        },
        {
            "buffer" : 0,
            "byteLength" : 3408,
            "byteOffset" : 1133132
        },
        {
            "buffer" : 0,
            "byteLength" : 2272,
            "byteOffset" : 1136540
        },
        {
            "buffer" : 0,
            "byteLength" : 1080,
            "byteOffset" : 1138812
        },
        {
            "buffer" : 0,
            "byteLength" : 492150,
            "byteOffset" : 1139892
        },
        {
            "buffer" : 0,
            "byteLength" : 283117,
            "byteOffset" : 1632044
        },
        {
            "buffer" : 0,
            "byteLength" : 857345,
            "byteOffset" : 1915164
        },
        {
            "buffer" : 0,
            "byteLength" : 1008,
            "byteOffset" : 2772512
        },
        {
            "buffer" : 0,
            "byteLength" : 1008,
            "byteOffset" : 2773520
        },
        {
            "buffer" : 0,
            "byteLength" : 672,
            "byteOffset" : 2774528
        },
        {
            "buffer" : 0,
            "byteLength" : 408,
            "byteOffset" : 2775200
        }
    ],
    "samplers" : [
        {
            "magFilter" : 9729,
            "minFilter" : 9987
        }
    ],
    "buffers" : [
        {
            "byteLength" : 2775608,
            "uri" : "data:application/octet-stream;base64,"
        }
    ]
}
