{
    "asset" : {
        "generator" : "Khronos glTF Blender I/O v3.4.49",
        "version" : "2.0"
    },
    "extensionsUsed" : [
        "KHR_materials_specular",
        "KHR_materials_ior"
    ],
    "scene" : 0,
    "scenes" : [
        {
            "name" : "Scene",
            "nodes" : [
                0,
                1,
                2
            ]
        }
    ],
    "nodes" : [
        {
            "name" : "Front Face",
            "rotation" : [
                0.5,
                0.5,
                -0.5,
                0.5
            ]
        },
        {
            "name" : "Side Profile",
            "rotation" : [
                0,
                -0.7071066498756409,
                0.70710688829422,
                3.090861255827804e-08
            ],
            "translation" : [
                -1.491120457649231,
                -0.011588998138904572,
                0
            ]
        },
        {
            "mesh" : 0,
            "name" : "Rat",
            "translation" : [
                0.5,
                0,
                0
            ]
        }
    ],
    "animations" : [
        {
            "channels" : [
                {
                    "sampler" : 0,
                    "target" : {
                        "node" : 2,
                        "path" : "rotation"
                    }
                },
                {
                    "sampler" : 1,
                    "target" : {
                        "node" : 2,
                        "path" : "translation"
                    }
                },
                {
                    "sampler" : 2,
                    "target" : {
                        "node" : 2,
                        "path" : "scale"
                    }
                }
            ],
            "name" : "RatAction",
            "samplers" : [
                {
                    "input" : 16,
                    "interpolation" : "LINEAR",
                    "output" : 17
                },
                {
                    "input" : 18,
                    "interpolation" : "LINEAR",
                    "output" : 19
                },
                {
                    "input" : 18,
                    "interpolation" : "LINEAR",
                    "output" : 20
                }
            ]
        }
    ],
    "materials" : [
        {
            "doubleSided" : true,
            "name" : "Rat Fur",
            "pbrMetallicRoughness" : {
                "baseColorTexture" : {
                    "index" : 0
                },
                "metallicFactor" : 0,
                "roughnessFactor" : 0.5
            }
        },
        {
            "doubleSided" : true,
            "extensions" : {
                "KHR_materials_specular" : {
                    "specularColorFactor" : [
                        0,
                        0,
                        0
                    ]
                },
                "KHR_materials_ior" : {
                    "ior" : 1.4500000476837158
                }
            },
            "name" : "Rat Tail",
            "pbrMetallicRoughness" : {
                "baseColorFactor" : [
                    1,
                    0.3870967626571655,
                    0.13498938083648682,
                    1
                ],
                "metallicFactor" : 0
            }
        },
        {
            "doubleSided" : true,
            "name" : "Rat Eye",
            "pbrMetallicRoughness" : {
                "baseColorFactor" : [
                    0,
                    0,
                    0,
                    1
                ],
                "metallicFactor" : 0,
                "roughnessFactor" : 0
            }
        },
        {
            "doubleSided" : true,
            "extensions" : {
                "KHR_materials_specular" : {
                    "specularColorFactor" : [
                        0,
                        0,
                        0
                    ]
                },
                "KHR_materials_ior" : {
                    "ior" : 1.4500000476837158
                }
            },
            "name" : "Rat Ear",
            "normalTexture" : {
                "index" : 1,
                "scale" : 0.6000007390975952
            },
            "pbrMetallicRoughness" : {
                "baseColorFactor" : [
                    0.8000000715255737,
                    0.3523695468902588,
                    0.7600335478782654,
                    0.9409090876579285
                ],
                "metallicFactor" : 0,
                "roughnessFactor" : 0.39370080828666687
            }
        }
    ],
    "meshes" : [
        {
            "name" : "Cube",
            "primitives" : [
                {
                    "attributes" : {
                        "POSITION" : 0,
                        "TEXCOORD_0" : 1,
                        "NORMAL" : 2
                    },
                    "indices" : 3,
                    "material" : 0
                },
                {
                    "attributes" : {
                        "POSITION" : 4,
                        "TEXCOORD_0" : 5,
                        "NORMAL" : 6
                    },
                    "indices" : 7,
                    "material" : 1
                },
                {
                    "attributes" : {
                        "POSITION" : 8,
                        "TEXCOORD_0" : 9,
                        "NORMAL" : 10
                    },
                    "indices" : 11,
                    "material" : 2
                },
                {
                    "attributes" : {
                        "POSITION" : 12,
                        "TEXCOORD_0" : 13,
                        "NORMAL" : 14
                    },
                    "indices" : 15,
                    "material" : 3
                }
            ]
        }
    ],
    "textures" : [
        {
            "sampler" : 0,
            "source" : 0
        },
        {
            "sampler" : 0,
            "source" : 1
        }
    ],
    "images" : [
        {
            "bufferView" : 4,
            "mimeType" : "image/jpeg",
            "name" : "Rat Texture"
        },
        {
            "bufferView" : 17,
            "mimeType" : "image/jpeg",
            "name" : "Rat Ear"
        }
    ],
    "accessors" : [
        {
            "bufferView" : 0,
            "componentType" : 5126,
            "count" : 1734,
            "max" : [
                0.8044445514678955,
                1.2120378017425537,
                1.1578314304351807
            ],
            "min" : [
                -3.5502705574035645,
                -1.4114619493484497,
                -1.1578902006149292
            ],
            "type" : "VEC3"
        },
        {
            "bufferView" : 1,
            "componentType" : 5126,
            "count" : 1734,
            "type" : "VEC2"
        },
        {
            "bufferView" : 2,
            "componentType" : 5126,
            "count" : 1734,
            "type" : "VEC3"
        },
        {
            "bufferView" : 3,
            "componentType" : 5123,
            "count" : 2604,
            "type" : "SCALAR"
        },
        {
            "bufferView" : 5,
            "componentType" : 5126,
            "count" : 72,
            "max" : [
                -3.5502705574035645,
                -0.5372214317321777,
                0.16263072192668915
            ],
            "min" : [
                -6.657553195953369,
                -0.8435360193252563,
                -0.16268956661224365
            ],
            "type" : "VEC3"
        },
        {
            "bufferView" : 6,
            "componentType" : 5126,
            "count" : 72,
            "type" : "VEC2"
        },
        {
            "bufferView" : 7,
            "componentType" : 5126,
            "count" : 72,
            "type" : "VEC3"
        },
        {
            "bufferView" : 8,
            "componentType" : 5123,
            "count" : 90,
            "type" : "SCALAR"
        },
        {
            "bufferView" : 9,
            "componentType" : 5126,
            "count" : 72,
            "max" : [
                0.24751830101013184,
                0.6242018938064575,
                0.3973669409751892
            ],
            "min" : [
                0.07524895668029785,
                0.4647656977176666,
                -0.3974258303642273
            ],
            "type" : "VEC3"
        },
        {
            "bufferView" : 10,
            "componentType" : 5126,
            "count" : 72,
            "type" : "VEC2"
        },
        {
            "bufferView" : 11,
            "componentType" : 5126,
            "count" : 72,
            "type" : "VEC3"
        },
        {
            "bufferView" : 12,
            "componentType" : 5123,
            "count" : 96,
            "type" : "SCALAR"
        },
        {
            "bufferView" : 13,
            "componentType" : 5126,
            "count" : 290,
            "max" : [
                0.8044445514678955,
                1.2120378017425537,
                1.0818955898284912
            ],
            "min" : [
                -2.0228140354156494,
                -1.4073482751846313,
                -1.0819543600082397
            ],
            "type" : "VEC3"
        },
        {
            "bufferView" : 14,
            "componentType" : 5126,
            "count" : 290,
            "type" : "VEC2"
        },
        {
            "bufferView" : 15,
            "componentType" : 5126,
            "count" : 290,
            "type" : "VEC3"
        },
        {
            "bufferView" : 16,
            "componentType" : 5123,
            "count" : 444,
            "type" : "SCALAR"
        },
        {
            "bufferView" : 18,
            "componentType" : 5126,
            "count" : 170,
            "max" : [
                7.083333333333333
            ],
            "min" : [
                0.041666666666666664
            ],
            "type" : "SCALAR"
        },
        {
            "bufferView" : 19,
            "componentType" : 5126,
            "count" : 170,
            "type" : "VEC4"
        },
        {
            "bufferView" : 20,
            "componentType" : 5126,
            "count" : 101,
            "max" : [
                7.083333333333333
            ],
            "min" : [
                2.9166666666666665
            ],
            "type" : "SCALAR"
        },
        {
            "bufferView" : 21,
            "componentType" : 5126,
            "count" : 101,
            "type" : "VEC3"
        },
        {
            "bufferView" : 22,
            "componentType" : 5126,
            "count" : 101,
            "type" : "VEC3"
        }
    ],
    "bufferViews" : [
        {
            "buffer" : 0,
            "byteLength" : 20808,
            "byteOffset" : 0,
            "target" : 34962
        },
        {
            "buffer" : 0,
            "byteLength" : 13872,
            "byteOffset" : 20808,
            "target" : 34962
        },
        {
            "buffer" : 0,
            "byteLength" : 20808,
            "byteOffset" : 34680,
            "target" : 34962
        },
        {
            "buffer" : 0,
            "byteLength" : 5208,
            "byteOffset" : 55488,
            "target" : 34963
        },
        {
            "buffer" : 0,
            "byteLength" : 178663,
            "byteOffset" : 60696
        },
        {
            "buffer" : 0,
            "byteLength" : 864,
            "byteOffset" : 239360,
            "target" : 34962
        },
        {
            "buffer" : 0,
            "byteLength" : 576,
            "byteOffset" : 240224,
            "target" : 34962
        },
        {
            "buffer" : 0,
            "byteLength" : 864,
            "byteOffset" : 240800,
            "target" : 34962
        },
        {
            "buffer" : 0,
            "byteLength" : 180,
            "byteOffset" : 241664,
            "target" : 34963
        },
        {
            "buffer" : 0,
            "byteLength" : 864,
            "byteOffset" : 241844,
            "target" : 34962
        },
        {
            "buffer" : 0,
            "byteLength" : 576,
            "byteOffset" : 242708,
            "target" : 34962
        },
        {
            "buffer" : 0,
            "byteLength" : 864,
            "byteOffset" : 243284,
            "target" : 34962
        },
        {
            "buffer" : 0,
            "byteLength" : 192,
            "byteOffset" : 244148,
            "target" : 34963
        },
        {
            "buffer" : 0,
            "byteLength" : 3480,
            "byteOffset" : 244340,
            "target" : 34962
        },
        {
            "buffer" : 0,
            "byteLength" : 2320,
            "byteOffset" : 247820,
            "target" : 34962
        },
        {
            "buffer" : 0,
            "byteLength" : 3480,
            "byteOffset" : 250140,
            "target" : 34962
        },
        {
            "buffer" : 0,
            "byteLength" : 888,
            "byteOffset" : 253620,
            "target" : 34963
        },
        {
            "buffer" : 0,
            "byteLength" : 20641,
            "byteOffset" : 254508
        },
        {
            "buffer" : 0,
            "byteLength" : 680,
            "byteOffset" : 275152
        },
        {
            "buffer" : 0,
            "byteLength" : 2720,
            "byteOffset" : 275832
        },
        {
            "buffer" : 0,
            "byteLength" : 404,
            "byteOffset" : 278552
        },
        {
            "buffer" : 0,
            "byteLength" : 1212,
            "byteOffset" : 278956
        },
        {
            "buffer" : 0,
            "byteLength" : 1212,
            "byteOffset" : 280168
        }
    ],
    "samplers" : [
        {
            "magFilter" : 9729,
            "minFilter" : 9987
        }
    ],
    "buffers" : [
        {
            "byteLength" : 281380,
            "uri" : "data:application/octet-stream;base64,"
        }
    ]
}
